<?xml version="1.0" encoding="UTF-8" standalone="no"?>
<!-- Uploaded to: SVG Repo, www.svgrepo.com, Generator: SVG Repo Mixer Tools -->

<svg
   fill="#000000"
   width="195.83994"
   height="30.560001"
   viewBox="-4.5 0 7.8335974 1.2224001"
   version="1.1"
   id="svg479"
   sodipodi:docname="wp_status_text.svg"
   inkscape:version="1.2.2 (b0a8486541, 2022-12-01)"
   xmlns:inkscape="http://www.inkscape.org/namespaces/inkscape"
   xmlns:sodipodi="http://sodipodi.sourceforge.net/DTD/sodipodi-0.dtd"
   xmlns="http://www.w3.org/2000/svg"
   xmlns:svg="http://www.w3.org/2000/svg"
   xmlns:rdf="http://www.w3.org/1999/02/22-rdf-syntax-ns#"
   xmlns:cc="http://creativecommons.org/ns#"
   xmlns:dc="http://purl.org/dc/elements/1.1/">
  <defs
     id="defs483" />
  <sodipodi:namedview
     id="namedview481"
     pagecolor="#ffffff"
     bordercolor="#666666"
     borderopacity="1.0"
     inkscape:showpageshadow="2"
     inkscape:pageopacity="0.0"
     inkscape:pagecheckerboard="0"
     inkscape:deskcolor="#d1d1d1"
     showgrid="false"
     inkscape:zoom="1.28375"
     inkscape:cx="138.65628"
     inkscape:cy="263.68062"
     inkscape:window-width="1434"
     inkscape:window-height="1229"
     inkscape:window-x="1300"
     inkscape:window-y="172"
     inkscape:window-maximized="0"
     inkscape:current-layer="text1790" />
  <title
     id="title475">heartbeat</title>
  <g
     aria-label="WP Status"
     id="text1790"
     style="font-size:1.6px;line-height:1.25;stroke-width:0.04">
    <path
       d="m -3.3528,1.1856 h -0.2160001 l -0.1952,-0.91039997 -0.1904,0.91039997 h -0.216 l -0.3296,-1.16639998 h 0.2544 l 0.1808,0.87360002 0.1808,-0.87360002 h 0.2368 L -3.4584,0.89440004 -3.284,0.01920002 h 0.2544 z"
       style="font-weight:600;font-family:FreeSans;-inkscape-font-specification:'FreeSans Semi-Bold';fill:#c71585"
       id="path4865" />
    <path
       d="M -2.6296007,0.76960004 V 1.1856 h -0.24 V 0.01920002 h 0.5152 q 0.1824,0 0.2784,0.09280001 0.0976,0.0928 0.0976,0.2688 0,0.1776 -0.096,0.2832 -0.096,0.10560001 -0.256,0.10560001 z m 0,-0.20000001 h 0.224 q 0.1872,0 0.1872,-0.1744 0,-0.0896 -0.0464,-0.1328 -0.0448,-0.0432 -0.1408,-0.0432 h -0.224 z"
       style="font-weight:600;font-family:FreeSans;-inkscape-font-specification:'FreeSans Semi-Bold';fill:#c71585"
       id="path4867" />
    <path
       d="m -0.48560066,0.37440003 h -0.22400001 q -0.0128,-0.1824 -0.2448,-0.1824 -0.0928,0 -0.14720003,0.04 -0.0544,0.0384 -0.0544,0.104 0,0.064 0.0464,0.096 0.0464,0.0304 0.17440003,0.056 l 0.1824,0.0352 q 0.16160001,0.032 0.23520001,0.1088 0.0736,0.0752 0.0736,0.21280001 0,0.17759996 -0.1264,0.27839996 -0.12640001,0.0992 -0.35200001,0.0992 -0.22400003,0 -0.34880003,-0.0992 -0.1232,-0.0992 -0.1344,-0.28639996 h 0.2336 q 0.0064,0.0944 0.0736,0.144 0.0672,0.0496 0.18880003,0.0496 0.1088,0 0.1712,-0.0416 0.064,-0.0416 0.064,-0.1152 0,-0.0704 -0.0496,-0.1088 -0.0496,-0.0384 -0.1696,-0.0608 l -0.16320003,-0.032 q -0.1776,-0.0336 -0.2528,-0.1056 -0.0752,-0.072 -0.0752,-0.208 0,-0.1712 0.1152,-0.264 Q -1.1528007,2.4676323e-8 -0.94320067,2.4676323e-8 q 0.0608,0 0.1168,0.0079999953237 0.0576,0.008 0.1216,0.03360001 0.064,0.024 0.11040001,0.064 0.0464,0.0384 0.0768,0.1088 0.032,0.0688 0.032,0.16 z"
       style="font-weight:600;font-family:FreeSans;-inkscape-font-specification:'FreeSans Semi-Bold';fill:#c71585"
       id="path4869" />
    <path
       d="m 0.09679867,0.33920003 v 0.1488 h -0.1248 v 0.47040001 q 0,0.0576 0.0144,0.0768 0.0143999969,0.0176 0.0592,0.0176 0.0176,0 0.0512,-0.0048 v 0.1568 q -0.0544,0.0176 -0.1296,0.0176 -0.21920001,0 -0.21920001,-0.2032 V 0.48800003 h -0.1104 v -0.1488 h 0.1104 v -0.232 h 0.22400001 v 0.232 z"
       style="font-weight:600;font-family:FreeSans;-inkscape-font-specification:'FreeSans Semi-Bold';fill:#c71585"
       id="path4871" />
    <path
       d="m 0.45519706,1.2224 q -0.1184,0 -0.1904,-0.0704 -0.072,-0.072 -0.072,-0.18879996 0,-0.2288 0.2544,-0.27200001 l 0.0896,-0.016 q 0.0032,0 0.032,-0.0032 0.0288,-0.0048 0.0368,-0.0064 0.008,-0.0032 0.0304,-0.008 0.024,-0.0048 0.0336,-0.0112 0.0096,-0.0064 0.0224,-0.016 0.0144,-0.0112 0.0192,-0.024 0.0048,-0.0144 0.0048,-0.032 0,-0.0864 -0.1296,-0.0864 -0.0832,0 -0.1168,0.0256 -0.0336,0.0256 -0.0416,0.0928 h -0.216 q 0.0208,-0.2992 0.3696,-0.2992 0.35360001,0 0.35360001,0.2656 V 1.0528 q 0,0.0592 0.0512,0.1056 V 1.1856 H 0.74319706 q -0.0256,-0.032 -0.0256,-0.0864 -0.1184,0.1232 -0.2624,0.1232 z m 0.2608,-0.38399996 v -0.0608 q -0.0304,0.0144 -0.0944,0.0272 l -0.0768,0.0144 q -0.0704,0.0144 -0.0992,0.0416 -0.0288,0.0272 -0.0288,0.0768 0,0.048 0.032,0.0768 0.0336,0.0272 0.0896,0.0272 0.0848,0 0.1312,-0.0528 0.0464,-0.0528 0.0464,-0.1504 z"
       style="font-weight:600;font-family:FreeSans;-inkscape-font-specification:'FreeSans Semi-Bold';fill:#c71585"
       id="path4873" />
    <path
       d="m 1.4871976,0.33920003 v 0.1488 h -0.1248 v 0.47040001 q 0,0.0576 0.0144,0.0768 0.0144,0.0176 0.0592,0.0176 0.0176,0 0.0512,-0.0048 v 0.1568 q -0.0544,0.0176 -0.1296,0.0176 -0.2192,0 -0.2192,-0.2032 V 0.48800003 h -0.1104 v -0.1488 h 0.1104 v -0.232 h 0.224 v 0.232 z"
       style="font-weight:600;font-family:FreeSans;-inkscape-font-specification:'FreeSans Semi-Bold';fill:#c71585"
       id="path4875" />
    <path
       d="m 2.4119968,1.1856 h -0.224 V 1.0832 q -0.0928,0.1392 -0.2592,0.1392 -0.1376,0 -0.2144,-0.0784 -0.0752,-0.0784 -0.0752,-0.22079996 V 0.32160003 h 0.224 v 0.55520001 q 0,0.15519996 0.144,0.15519996 0.0816,0 0.1312,-0.0464 0.0496,-0.0464 0.0496,-0.1232 V 0.32160003 h 0.224 z"
       style="font-weight:600;font-family:FreeSans;-inkscape-font-specification:'FreeSans Semi-Bold';fill:#c71585"
       id="path4877" />
    <path
       d="m 2.7671976,0.93440004 q 0.0112,0.0544 0.0448,0.0832 0.0352,0.0288 0.1312,0.0288 0.0784,0 0.1216,-0.0224 0.0448,-0.0224 0.0448,-0.0624 0,-0.0256 -0.0176,-0.0416 -0.016,-0.016 -0.0576,-0.0288 l -0.2672,-0.0832 q -0.0016,0 -0.0192,-0.0048 -0.0176,-0.0064 -0.0256,-0.0096 -0.0064,-0.0032 -0.0256,-0.0096 -0.0192,-0.008 -0.0304,-0.016 -0.0096,-0.008 -0.0256,-0.0192 -0.016,-0.0128 -0.0256,-0.0272 -0.008,-0.0144 -0.0176,-0.032 -0.0096,-0.0192 -0.0144,-0.0432 -0.0048,-0.024 -0.0048,-0.0512 0,-0.1328 0.0944,-0.2096 0.096,-0.0784 0.2608,-0.0784 0.1744,0 0.2736,0.0784 0.0992,0.0768 0.1024,0.2144 h -0.216 q -0.0016,-0.1168 -0.1616,-0.1168 -0.0592,0 -0.0944,0.0224 -0.0352,0.0208 -0.0352,0.0576 0,0.0256 0.016,0.04 0.016,0.0128 0.0624,0.0272 l 0.2832,0.0816 q 0.1696,0.0496 0.1696,0.2176 0,0.0496 -0.0176,0.0976 -0.0176,0.0464 -0.0576,0.0928 -0.0384,0.0464 -0.1168,0.0736 -0.0784,0.0288 -0.1856,0.0288 -0.3984,0 -0.408,-0.28799996 z"
       style="font-weight:600;font-family:FreeSans;-inkscape-font-specification:'FreeSans Semi-Bold';fill:#c71585"
       id="path4879" />
  </g>
  <metadata
     id="metadata4137">
    <rdf:RDF>
      <cc:Work
         rdf:about="">
        <dc:title>heartbeat</dc:title>
      </cc:Work>
    </rdf:RDF>
  </metadata>
</svg>
