<?xml version="1.0" encoding="UTF-8" standalone="no"?>
<svg
   width="128"
   height="128"
   viewBox="0 0 128 128"
   version="1.1"
   id="svg36"
   sodipodi:docname="wp_status.svg"
   inkscape:export-filename="wp_status_250.png"
   inkscape:export-xdpi="195.12195"
   inkscape:export-ydpi="195.12195"
   inkscape:version="1.2.2 (b0a8486541, 2022-12-01)"
   xmlns:inkscape="http://www.inkscape.org/namespaces/inkscape"
   xmlns:sodipodi="http://sodipodi.sourceforge.net/DTD/sodipodi-0.dtd"
   xmlns="http://www.w3.org/2000/svg"
   xmlns:svg="http://www.w3.org/2000/svg">
  <sodipodi:namedview
     id="namedview38"
     pagecolor="#ffffff"
     bordercolor="#666666"
     borderopacity="1.0"
     inkscape:showpageshadow="2"
     inkscape:pageopacity="0.0"
     inkscape:pagecheckerboard="0"
     inkscape:deskcolor="#d1d1d1"
     showgrid="false"
     inkscape:zoom="1.4183568"
     inkscape:cx="19.036113"
     inkscape:cy="64.158752"
     inkscape:window-width="2560"
     inkscape:window-height="1336"
     inkscape:window-x="0"
     inkscape:window-y="32"
     inkscape:window-maximized="1"
     inkscape:current-layer="svg36" />
  <!-- Background Circle -->
  <circle
     cx="64"
     cy="64"
     r="60"
     fill="url(#bgGradient)"
     stroke="url(#borderGradient)"
     stroke-width="3"
     id="circle2" />
  <!-- Status Graph Line with Big Dip and Big Rise -->
  <!-- Data Points -->
  <!-- Gradients -->
  <defs
     id="defs34">
    <linearGradient
       id="bgGradient"
       x1="0%"
       y1="0%"
       x2="100%"
       y2="100%">
      <stop
         offset="0%"
         style="stop-color:#FF1493;stop-opacity:1"
         id="stop22" />
      <stop
         offset="50%"
         style="stop-color:#C71585;stop-opacity:1"
         id="stop24" />
      <stop
         offset="100%"
         style="stop-color:#8B008B;stop-opacity:1"
         id="stop26" />
    </linearGradient>
    <linearGradient
       id="borderGradient"
       x1="0%"
       y1="0%"
       x2="100%"
       y2="100%">
      <stop
         offset="0%"
         style="stop-color:#FF69B4;stop-opacity:1"
         id="stop29" />
      <stop
         offset="100%"
         style="stop-color:#DA70D6;stop-opacity:1"
         id="stop31" />
    </linearGradient>
  </defs>
  <path
     d="m 67.090403,96.703359 c 0.17076,0 0.17076,0 0.341521,0 1.707617,-0.170763 3.073704,-1.536864 3.244465,-3.24448 l 4.269049,-42.519625 3.756757,11.61178 c 0.512276,1.536856 1.878366,2.390669 3.415219,2.390669 h 25.101966 c 2.04914,0 3.586,-1.536856 3.586,-3.415234 0,-1.878378 -1.53686,-3.585994 -3.586,-3.585994 H 84.508081 L 76.311517,32.326238 c -0.512277,-1.536856 -2.04913,-2.561421 -3.756751,-2.39066 -1.707608,0.170761 -2.902942,1.536856 -3.073704,3.244465 L 65.382786,74.675107 56.673941,44.962592 c -0.512283,-1.536848 -1.707617,-2.561422 -3.415234,-2.561422 -1.536848,0 -2.902943,1.195335 -3.415225,2.732191 L 45.062153,65.795507 41.476159,60.501896 C 40.793115,59.477331 39.76855,58.965047 38.573216,58.965047 H 16.032683 c -1.878378,0 -3.585986,1.536849 -3.585986,3.585987 0,1.878378 1.536847,3.585994 3.585986,3.585994 h 20.662154 l 7.001229,10.416458 c 0.853804,1.195327 2.219899,1.707615 3.585986,1.536853 1.366096,-0.170763 2.56143,-1.366091 2.73219,-2.732181 l 3.585995,-15.368545 10.074932,34.493842 c 0.512283,1.195328 1.878377,2.219904 3.415234,2.219904 z"
     id="path477"
     style="fill:#ffffff;stroke-width:4.26903" />
</svg>
